<svg width="40" height="40" viewBox="0 0 40 40" fill="none" xmlns="http://www.w3.org/2000/svg">
<mask id="mask0_22_230" style="mask-type:alpha" maskUnits="userSpaceOnUse" x="0" y="0" width="40" height="40">
<rect width="40" height="40" fill="#D9D9D9"/>
</mask>
<g mask="url(#mask0_22_230)">
<path d="M9.41667 29.0833C11.0556 27.9074 12.7407 26.9977 14.4722 26.3541C16.2037 25.7106 18.0463 25.3889 20 25.3889C21.9537 25.3889 23.8009 25.7106 25.5417 26.3541C27.2824 26.9977 28.9722 27.9074 30.6111 29.0833C31.75 27.7037 32.581 26.2639 33.1042 24.7639C33.6273 23.2639 33.8889 21.6759 33.8889 20C33.8889 16.0833 32.5533 12.7893 29.882 10.118C27.2107 7.44672 23.9167 6.11106 20 6.11106C16.0833 6.11106 12.7893 7.44672 10.118 10.118C7.44674 12.7893 6.11108 16.0833 6.11108 20C6.11108 21.6759 6.37729 23.2639 6.90971 24.7639C7.44212 26.2639 8.27778 27.7037 9.41667 29.0833ZM19.9948 21.3889C18.3779 21.3889 17.0162 20.8339 15.9097 19.724C14.8032 18.6141 14.25 17.2506 14.25 15.6337C14.25 14.0168 14.805 12.6551 15.9149 11.5486C17.0248 10.4421 18.3883 9.88886 20.0052 9.88886C21.6221 9.88886 22.9838 10.4438 24.0903 11.5538C25.1968 12.6637 25.75 14.0271 25.75 15.644C25.75 17.261 25.195 18.6227 24.0851 19.7291C22.9752 20.8356 21.6118 21.3889 19.9948 21.3889ZM20.013 36.6666C17.7173 36.6666 15.5556 36.2291 13.5278 35.3541C11.5 34.4791 9.73149 33.287 8.22221 31.7778C6.71296 30.2685 5.52083 28.5021 4.64583 26.4787C3.77083 24.4552 3.33333 22.2932 3.33333 19.9926C3.33333 17.692 3.77083 15.5324 4.64583 13.5139C5.52083 11.4954 6.71296 9.73147 8.22221 8.22219C9.73149 6.71294 11.4978 5.52081 13.5213 4.64581C15.5447 3.77081 17.7068 3.33331 20.0074 3.33331C22.308 3.33331 24.4676 3.77081 26.4861 4.64581C28.5046 5.52081 30.2685 6.71294 31.7778 8.22219C33.287 9.73147 34.4792 11.4957 35.3542 13.5148C36.2292 15.5339 36.6667 17.6913 36.6667 19.987C36.6667 22.2827 36.2292 24.4444 35.3542 26.4722C34.4792 28.5 33.287 30.2685 31.7778 31.7778C30.2685 33.287 28.5043 34.4791 26.4852 35.3541C24.4661 36.2291 22.3087 36.6666 20.013 36.6666ZM20 33.8889C21.5093 33.8889 22.9676 33.669 24.375 33.2292C25.7824 32.7893 27.1389 32.0648 28.4445 31.0555C27.1389 30.1204 25.7778 29.4051 24.3611 28.9097C22.9445 28.4143 21.4907 28.1666 20 28.1666C18.5092 28.1666 17.0555 28.4143 15.6389 28.9097C14.2222 29.4051 12.8611 30.1204 11.5555 31.0555C12.8611 32.0648 14.2176 32.7893 15.625 33.2292C17.0324 33.669 18.4907 33.8889 20 33.8889ZM20 18.6111C20.8704 18.6111 21.5833 18.3333 22.1389 17.7778C22.6945 17.2222 22.9722 16.5092 22.9722 15.6389C22.9722 14.7685 22.6945 14.0555 22.1389 13.5C21.5833 12.9444 20.8704 12.6666 20 12.6666C19.1296 12.6666 18.4167 12.9444 17.8611 13.5C17.3055 14.0555 17.0278 14.7685 17.0278 15.6389C17.0278 16.5092 17.3055 17.2222 17.8611 17.7778C18.4167 18.3333 19.1296 18.6111 20 18.6111Z" fill="#5B5B5B"/>
</g>
</svg>
