<svg width="40" height="40" viewBox="0 0 40 40" fill="none" xmlns="http://www.w3.org/2000/svg">
<mask id="mask0_21_200" style="mask-type:alpha" maskUnits="userSpaceOnUse" x="0" y="0" width="40" height="40">
<rect width="40" height="40" fill="#D9D9D9"/>
</mask>
<g mask="url(#mask0_21_200)">
<path d="M6.11108 36.6667C5.36108 36.6667 4.71062 36.3912 4.15971 35.8403C3.60879 35.2894 3.33333 34.6389 3.33333 33.8889V16.1111C3.33333 15.3611 3.60879 14.7106 4.15971 14.1597C4.71062 13.6088 5.36108 13.3333 6.11108 13.3333H33.8889C34.6389 13.3333 35.2894 13.6088 35.8403 14.1597C36.3912 14.7106 36.6667 15.3611 36.6667 16.1111V33.8889C36.6667 34.6389 36.3912 35.2894 35.8403 35.8403C35.2894 36.3912 34.6389 36.6667 33.8889 36.6667H6.11108ZM6.11108 33.8889H33.8889V16.1111H6.11108V33.8889ZM16.8611 31.3611L26.3333 25L16.8611 18.6667V31.3611ZM6.36108 11.1111V8.33334H33.6389V11.1111H6.36108ZM11.6667 6.11109V3.33334H28.3333V6.11109H11.6667Z" fill="#5B5B5B"/>
</g>
</svg>
