<svg width="120" height="40" viewBox="0 0 120 40" fill="none" xmlns="http://www.w3.org/2000/svg">
<path d="M31.1859 38.2557L10.6638 31.0132C10.5153 30.9607 10.4636 30.891 10.4386 30.8422C10.4055 30.7777 10.3872 30.6798 10.4097 30.5669C10.4321 30.4539 10.4865 30.3705 10.5417 30.3236C10.5835 30.288 10.6579 30.2434 10.8152 30.2517L24.0131 30.955C25.4299 31.0305 26.6708 30.0139 26.8756 28.6099L30.6332 2.84182C30.6689 2.5974 30.9189 2.4464 31.1518 2.5286L51.6739 9.77117C51.8224 9.82358 51.874 9.89327 51.8991 9.94216C51.9321 10.0066 51.9505 10.1045 51.928 10.2174C51.9055 10.3304 51.8512 10.4138 51.796 10.4607C51.7541 10.4963 51.6798 10.5409 51.5225 10.5326L38.3246 9.82932C36.9078 9.75383 35.6669 10.7704 35.4621 12.1744L31.7045 37.9425C31.6688 38.1869 31.4188 38.3379 31.1859 38.2557Z" stroke="#5B5B5B" stroke-width="2.35294"/>
<path d="M83.8146 20.9871C83.8146 21.5692 83.6982 22.0594 83.4653 22.4577C83.2325 22.8499 82.9169 23.1716 82.5186 23.4228C82.1265 23.6679 81.673 23.8487 81.1583 23.9651C80.6436 24.0876 80.1105 24.1612 79.5591 24.1857C78.9831 24.1734 78.4132 24.1152 77.8495 24.011C77.3532 23.9252 76.8048 23.7659 76.2043 23.5331C75.6038 23.3002 75.0646 22.9969 74.5866 22.6232L75.4782 21.2261C75.8152 21.4038 76.1583 21.5754 76.5076 21.7408C76.863 21.9063 77.2245 22.0502 77.5921 22.1728C77.9598 22.3015 78.3366 22.4026 78.7227 22.4761C79.1087 22.5496 79.507 22.5864 79.9175 22.5864C80.4996 22.5864 80.9469 22.4914 81.2594 22.3015C81.5719 22.1054 81.7772 21.8664 81.8752 21.5846C81.9855 21.2169 81.8783 20.8646 81.5535 20.5276C81.4923 20.4663 81.4218 20.4112 81.3421 20.3621C81.2625 20.307 81.1736 20.2549 81.0756 20.2059C80.8795 20.114 80.6406 20.0374 80.3587 19.9761C80.0768 19.9148 79.7429 19.875 79.3569 19.8566C78.8054 19.8321 78.2723 19.777 77.7576 19.6912C77.249 19.5993 76.7956 19.4583 76.3973 19.2684C75.9929 19.0784 75.6589 18.8303 75.3955 18.5239C75.1381 18.2114 74.9819 17.8223 74.9267 17.3566C74.8838 16.9338 74.9145 16.5294 75.0186 16.1434C75.2147 15.4387 75.6191 14.8597 76.2319 14.4063C76.385 14.3021 76.5413 14.204 76.7006 14.1121C76.866 14.0202 77.0376 13.9375 77.2153 13.864C77.5707 13.723 77.9445 13.6189 78.3366 13.5515C78.7349 13.4779 79.1363 13.4412 79.5407 13.4412C79.7796 13.4412 80.0615 13.4534 80.3863 13.4779C80.711 13.5025 81.0511 13.5515 81.4065 13.625C81.7619 13.6985 82.1203 13.8058 82.4819 13.9467C82.8434 14.0815 83.1804 14.2623 83.4929 14.489L82.8587 16.171C82.4543 15.9565 82.0682 15.7911 81.7006 15.6746C81.3391 15.5521 81.0174 15.4571 80.7355 15.3897C80.5701 15.3529 80.4077 15.3223 80.2484 15.2978C80.0952 15.2733 79.9482 15.2549 79.8072 15.2426C78.8452 15.1875 78.0946 15.2886 77.5554 15.546C77.0223 15.8033 76.7557 16.1924 76.7557 16.7132C76.7557 17.0809 76.8569 17.3505 77.0591 17.5221C77.2613 17.6875 77.537 17.807 77.8863 17.8805C78.0885 17.9234 78.3458 17.9602 78.6583 17.9908C78.977 18.0153 79.3078 18.0429 79.651 18.0735C80.0002 18.1042 80.3158 18.1409 80.5977 18.1838C81.1982 18.2757 81.7037 18.4136 82.1142 18.5974C82.5247 18.7813 82.8556 18.9957 83.1069 19.2408C83.3581 19.4859 83.5388 19.7586 83.6491 20.0588C83.7594 20.3529 83.8146 20.6624 83.8146 20.9871ZM89.6785 21.6213L89.4396 23.4504C89.0045 23.4442 88.6185 23.3707 88.2815 23.2298C87.9506 23.0888 87.6595 22.905 87.4083 22.6783C87.151 22.4577 86.9304 22.2034 86.7466 21.9154C86.5689 21.6275 86.4187 21.3364 86.2962 21.0423C86.0021 20.3438 85.8182 19.5533 85.7447 18.671L85.9929 7.01655H87.9138L87.8311 10.0129C87.8189 10.4663 87.8066 10.9013 87.7944 11.318C87.7821 11.7286 87.7698 12.1207 87.7576 12.4945C87.7392 13.2359 87.7208 13.9038 87.7024 14.4982C87.6902 15.0864 87.6779 15.6042 87.6657 16.0515C87.635 17.1115 87.6167 17.9418 87.6105 18.5423C87.6167 19.106 87.6994 19.6146 87.8587 20.068C87.9935 20.4847 88.2049 20.8462 88.4929 21.1526C88.7809 21.4528 89.1761 21.6091 89.6785 21.6213ZM100.322 18.5423C100.322 19.3143 100.193 20.0282 99.9359 20.6838C99.6785 21.3395 99.3262 21.9093 98.8789 22.3934C98.4316 22.8775 97.9077 23.2543 97.3072 23.5239C96.7067 23.7996 96.0664 23.9375 95.3863 23.9375C93.9953 23.9375 92.8403 23.4412 91.9212 22.4485C91.4739 21.9767 91.1216 21.4099 90.8642 20.7482C90.6069 20.0864 90.4782 19.3511 90.4782 18.5423C90.4782 17.7273 90.6069 16.989 90.8642 16.3272C91.1216 15.6593 91.4739 15.0895 91.9212 14.6176C92.3624 14.1458 92.8801 13.7813 93.4745 13.5239C94.0689 13.2665 94.7061 13.1379 95.3863 13.1379C96.0664 13.1379 96.7067 13.2757 97.3072 13.5515C97.9077 13.8211 98.4316 14.1949 98.8789 14.6728C99.3262 15.1569 99.6785 15.7298 99.9359 16.3915C100.193 17.0472 100.322 17.7641 100.322 18.5423ZM98.3826 18.5239C98.3826 18.0827 98.3274 17.6354 98.2171 17.182C98.1069 16.7286 97.9322 16.3241 97.6932 15.9688C97.4543 15.6072 97.1448 15.3162 96.7649 15.0956C96.385 14.8689 95.9255 14.7555 95.3863 14.7555C94.8654 14.7555 94.4181 14.8689 94.0444 15.0956C93.6706 15.3162 93.3642 15.6072 93.1252 15.9688C92.8863 16.3241 92.7116 16.7286 92.6013 17.182C92.491 17.6354 92.4359 18.0827 92.4359 18.5239C92.4359 18.9651 92.4941 19.4093 92.6105 19.8566C92.7331 20.2978 92.9169 20.6991 93.162 21.0607C93.4071 21.4161 93.7135 21.7102 94.0811 21.943C94.4549 22.1697 94.8899 22.2831 95.3863 22.2831C95.9071 22.2831 96.3544 22.1697 96.7282 21.943C97.1081 21.7102 97.4206 21.4161 97.6657 21.0607C97.9108 20.6991 98.0915 20.2978 98.208 19.8566C98.3244 19.4093 98.3826 18.9651 98.3826 18.5239ZM110.276 14.5901L110.294 12.761L112.096 12.8162L112.041 23.3768C112.035 23.5729 112.019 23.7721 111.995 23.9743C111.97 24.1765 111.933 24.3756 111.884 24.5717C111.688 25.3744 111.305 26.1066 110.736 26.7684C110.448 27.0931 110.12 27.3842 109.752 27.6415C109.378 27.8928 108.962 28.098 108.502 28.2574C108.043 28.4228 107.54 28.527 106.995 28.5699C106.272 28.5944 105.573 28.5178 104.899 28.3401C104.299 28.1808 103.717 27.902 103.153 27.5037C102.589 27.1054 102.169 26.5509 101.894 25.8401L103.668 25.068C103.882 25.5521 104.185 25.9259 104.577 26.1893C104.976 26.4589 105.38 26.6336 105.791 26.7132C106.238 26.8113 106.71 26.8297 107.206 26.7684C107.421 26.7255 107.62 26.6703 107.804 26.6029C107.993 26.5355 108.168 26.4589 108.327 26.3732C108.64 26.1955 108.906 25.9963 109.127 25.7757C109.354 25.5613 109.535 25.3346 109.669 25.0956C109.737 24.973 109.795 24.8536 109.844 24.7371C109.899 24.6207 109.948 24.5074 109.991 24.3971C110.071 24.1765 110.123 23.9743 110.147 23.7904C110.178 23.6127 110.193 23.4749 110.193 23.3768V22.1728C109.826 22.5221 109.443 22.7917 109.044 22.9816C108.652 23.1654 108.288 23.3002 107.951 23.386C107.755 23.435 107.558 23.4749 107.362 23.5055C107.172 23.5362 106.982 23.5545 106.793 23.5607C105.346 23.5607 104.152 23.0797 103.208 22.1176C102.755 21.6581 102.396 21.0974 102.133 20.4357C101.875 19.7739 101.747 19.0294 101.747 18.2022C101.747 17.3689 101.891 16.6275 102.179 15.9779C102.473 15.3223 102.853 14.7708 103.318 14.3235C103.79 13.8762 104.32 13.5362 104.908 13.3033C105.497 13.0643 106.091 12.9449 106.691 12.9449C107.108 12.9939 107.528 13.0858 107.951 13.2206C108.312 13.337 108.701 13.5025 109.118 13.7169C109.535 13.9314 109.921 14.2224 110.276 14.5901ZM106.793 21.796C107.614 21.796 108.352 21.5263 109.008 20.9871C109.314 20.7359 109.574 20.4357 109.789 20.0864C110.003 19.731 110.15 19.3419 110.23 18.9191V17.7151C110.163 17.28 110.019 16.8848 109.798 16.5294C109.577 16.1679 109.308 15.8585 108.989 15.6011C108.327 15.0619 107.577 14.7923 106.737 14.7923C106.296 14.7923 105.889 14.8842 105.515 15.068C105.147 15.2457 104.829 15.4939 104.559 15.8125C104.296 16.1311 104.087 16.508 103.934 16.943C103.781 17.3781 103.704 17.8468 103.704 18.3493C103.704 18.8517 103.781 19.3143 103.934 19.7371C104.087 20.1538 104.302 20.5153 104.577 20.8217C104.847 21.1219 105.169 21.3609 105.543 21.5386C105.922 21.7102 106.339 21.796 106.793 21.796Z" fill="#5B5B5B"/>
<path d="M61.1612 28.2353C61.1612 34.0903 56.4477 38.8235 50.6494 38.8235C44.851 38.8235 40.1375 34.0903 40.1375 28.2353C40.1375 22.3803 44.851 17.6471 50.6494 17.6471C56.4477 17.6471 61.1612 22.3803 61.1612 28.2353Z" stroke="#5B5B5B" stroke-width="2.35294"/>
</svg>
